<svg width="8" height="10" viewBox="0 0 8 10" fill="none" xmlns="http://www.w3.org/2000/svg">
<path d="M2 5V4H6V5H2ZM2 3V2H6V3H2ZM1 6H4.75C4.99167 6 5.21667 6.05217 5.425 6.1565C5.63333 6.26083 5.80833 6.40867 5.95 6.6L7 7.975V1H1V6ZM1 9H6.525L5.1625 7.2125C5.1125 7.14583 5.05217 7.09367 4.9815 7.056C4.91083 7.01833 4.83367 6.99967 4.75 7H1V9ZM7 10H1C0.725001 10 0.489501 9.902 0.293501 9.706C0.0975008 9.51 -0.000332484 9.27467 8.48897e-07 9V1C8.48897e-07 0.725001 0.0980007 0.489501 0.294001 0.293501C0.490001 0.0975008 0.725334 -0.000332484 1 8.48897e-07H7C7.275 8.48897e-07 7.5105 0.0980009 7.7065 0.294001C7.9025 0.490001 8.00033 0.725334 8 1V9C8 9.275 7.902 9.5105 7.706 9.7065C7.51 9.9025 7.27467 10.0003 7 10Z" fill="#586069"/>
</svg>
